<?xml version="1.0" encoding="iso-8859-1"?>
<!-- Generator: Adobe Illustrator 19.0.0, SVG Export Plug-In . SVG Version: 6.00 Build 0)  -->
<svg version="1.1" id="Capa_1" xmlns="http://www.w3.org/2000/svg" xmlns:xlink="http://www.w3.org/1999/xlink" x="0px" y="0px"
	 viewBox="0 0 512.002 512.002" style="enable-background:new 0 0 512.002 512.002;" xml:space="preserve">
<path style="fill:#D26437;" d="M256.005,19.86c2.802-0.001,5.603-0.744,8.127-2.231c7.763-4.571,21.084-10.13,39.964-10.13
	c36.226,0,64.131,16.032,64.131,16.032l-16.032,16.032c17.232,4.595,27.054,7.348,45.981,17.265
	c66.56,34.874,98.309,110.993,98.309,110.993H464.42c40.08,64.131,40.08,152.308,40.08,152.308l-24.048-8.016
	c0,0,0,72.145-32.065,120.242l-24.048-16.032c0,0-24.048,40.081-64.129,64.129l-16.032-16.032c0,0-40.081,32.065-88.177,40.081
	c-48.097-8.016-88.177-40.081-88.177-40.081l-16.032,16.032c-40.081-24.048-64.129-64.129-64.129-64.129l-24.048,16.032
	C31.55,384.258,31.55,312.113,31.55,312.113L7.5,320.129c0,0,0-88.177,40.081-152.306H15.517c0,0,31.749-76.119,98.309-110.993
	c18.927-9.917,28.749-12.67,45.981-17.265l-16.032-16.032c0,0,27.905-16.032,64.131-16.032c18.879,0,32.201,5.559,39.963,10.13
	c2.524,1.486,5.326,2.23,8.127,2.231"/>
<path style="fill:#EBAF4B;" d="M405.713,56.143c18.973-3.679,36.357,11.738,34.525,30.978
	c-2.274,23.885-19.824,66.005-43.872,90.805l-77.239-77.74C348.723,76.693,385.483,60.065,405.713,56.143z"/>
<path style="fill:#E18C46;" d="M416.965,75.137c9.625-2.537,18.576,4.111,22.835,14.731c-3.221,24.241-20.232,64.132-43.433,88.059
	l-0.597-0.599l-42.492-58.146C375.047,95.688,402.086,79.06,416.965,75.137z"/>
<path style="fill:#B44632;" d="M189.235,95.908c0,0,23.178-47.326,62.184-76.779c-1.218-0.368-2.418-0.833-3.55-1.499
	c-7.763-4.571-21.084-10.13-39.964-10.13c-36.226,0-64.131,16.032-64.131,16.032l16.032,16.032
	c-17.232,4.595-27.054,7.348-45.981,17.265c-66.56,34.875-98.308,110.994-98.308,110.994h32.065
	C7.5,231.952,7.5,320.129,7.5,320.129l24.048-8.016c0,0,0,72.145,32.065,120.242l24.048-16.032c0,0,24.048,40.081,64.129,64.129
	l16.032-16.032c0,0,40.081,32.065,88.177,40.081C256,504.5,197.884,480.452,189.235,95.908z"/>
<path style="fill:#EBAF4B;" d="M106.288,56.143c-18.973-3.679-36.357,11.738-34.525,30.978
	c2.274,23.885,19.824,66.005,43.872,90.805l77.239-77.74C163.278,76.693,126.518,60.065,106.288,56.143z"/>
<path style="fill:#E18C46;" d="M95.036,75.137C85.411,72.6,76.46,79.248,72.201,89.868c3.221,24.241,20.232,64.132,43.433,88.059
	l0.597-0.599l42.492-58.146C136.954,95.688,109.916,79.06,95.036,75.137z"/>
<path style="fill:#FFC850;" d="M352.194,103.694C320.556,79.086,256,119.726,256,119.726s-64.556-40.639-96.194-16.032
	c-72.145,56.113-88.177,216.435-80.161,248.5c5.833,23.33,56.113,64.129,112.226,80.161H320.13
	c56.113-16.032,106.393-56.831,112.226-80.161C440.371,320.129,424.339,159.806,352.194,103.694z"/>
<path style="fill:#EBAF4B;" d="M129.067,399.485c-6.157-38.447,8.405-209.034,60.168-303.577
	c-10.883-0.524-21.257,1.43-29.428,7.785c-72.145,56.113-88.177,216.435-80.161,248.5c3.511,14.045,23.189,34.4,50.493,51.892
	C129.726,402.522,129.302,400.951,129.067,399.485z"/>
<path style="fill:#FAEBC8;" d="M432.355,312.01c-5.833,23.33-56.113,64.129-112.226,80.161H191.871
	C135.759,376.139,85.478,335.34,79.646,312.01c-0.365-1.458-0.661-3.265-0.922-5.23c-1.587,20.858-1.112,37.276,0.922,45.414
	c5.833,23.33,56.113,64.129,112.226,80.161H320.13c56.113-16.032,106.393-56.831,112.226-80.161
	c2.034-8.137,2.509-24.555,0.922-45.414C433.016,308.745,432.72,310.553,432.355,312.01z"/>
<path style="fill:#F5DCB4;" d="M189.47,419.34c4.161,25.565,26.344,45.079,53.084,45.079h26.893c26.63,0,48.74-19.353,53.032-44.762
	l-66.474-11.35L189.47,419.34z"/>
<path style="fill:#FAEBC8;" d="M300.089,344.177c-18.594,0-34.868,7.515-44.089,18.789c-9.221-11.274-25.495-18.789-44.089-18.789
	c-28.777,0-52.105,17.945-52.105,40.081s23.328,40.081,52.105,40.081c18.594,0,34.868-7.515,44.089-18.789
	c9.221,11.274,25.495,18.789,44.089,18.789c28.777,0,52.105-17.945,52.105-40.081S328.866,344.177,300.089,344.177z"/>
<path style="fill:#5D5360;" d="M212.75,358.185l17.027,14.196c15.189,12.664,37.258,12.664,52.447,0l17.027-14.196
	c7.543-6.289,3.145-18.568-6.676-18.568c-21.747,0-51.403,0-73.15-0.001C209.605,339.617,205.207,351.896,212.75,358.185z"/>
<path style="fill:#4B3F4E;" d="M175.839,296.081L175.839,296.081c-13.282,0-24.048-10.767-24.048-24.048v-8.016
	c0-13.282,10.767-24.048,24.048-24.048l0,0c13.282,0,24.048,10.767,24.048,24.048v8.016
	C199.888,285.314,189.121,296.081,175.839,296.081z"/>
<path style="fill:#5D5360;" d="M175.839,239.968v28.056c0,6.641,5.383,12.024,12.024,12.024s12.024-5.383,12.024-12.024v-4.008
	C199.888,250.735,189.121,239.968,175.839,239.968z"/>
<circle style="fill:#FFFFFF;" cx="175.84" cy="256" r="8.02"/>
<path style="fill:#4B3F4E;" d="M336.162,296.081L336.162,296.081c-13.282,0-24.048-10.767-24.048-24.048v-8.016
	c0-13.282,10.767-24.048,24.048-24.048l0,0c13.282,0,24.048,10.767,24.048,24.048v8.016
	C360.21,285.314,349.443,296.081,336.162,296.081z"/>
<path style="fill:#5D5360;" d="M336.162,239.968v28.056c0,6.641,5.383,12.024,12.024,12.024s12.024-5.383,12.024-12.024v-4.008
	C360.21,250.735,349.443,239.968,336.162,239.968z"/>
<circle style="fill:#FFFFFF;" cx="336.16" cy="256" r="8.02"/>
<path style="fill:#4B3F4E;" d="M260.807,371.158l-17.027-19.582c-2.838-3.264-3.981-7.697-3.785-11.958c-7.254,0-14.26,0-20.568,0
	c-9.821,0-14.219,12.279-6.676,18.568l17.027,14.197c11.592,9.665,27.173,11.897,40.663,6.81
	C267.052,377.112,263.773,374.569,260.807,371.158z"/>
<path style="fill:#F5DCB4;" d="M79.646,312.01c-0.365-1.458-0.661-3.265-0.922-5.23c-1.587,20.858-1.112,37.276,0.922,45.414
	c3.511,14.045,23.189,34.4,50.493,51.892c-0.412-1.564-0.837-3.135-1.071-4.601c-1.223-7.635-1.613-20.543-1.072-36.972
	C101.812,345.34,83.064,325.685,79.646,312.01z"/>
<path d="M292.576,332.118h-73.149c0,0,0,0-0.001,0c-7.654,0-14.284,4.648-16.891,11.842c-2.614,7.22-0.49,15.064,5.412,19.986l0,0
	l17.028,14.196c8.989,7.496,20.006,11.242,31.026,11.242c11.017,0,22.038-3.748,31.026-11.242l17.026-14.196
	c5.902-4.921,8.027-12.766,5.412-19.986C306.861,336.766,300.231,332.118,292.576,332.118z M294.449,352.425l-17.026,14.195
	c-12.412,10.349-30.43,10.349-42.842,0l-17.028-14.196l0,0c-1.423-1.187-1.184-2.613-0.914-3.357
	c0.264-0.729,0.978-1.951,2.788-1.951h73.149c1.811,0,2.523,1.222,2.787,1.95C295.632,349.813,295.873,351.238,294.449,352.425z"/>
<path d="M207.387,264.016c0-4.142-3.357-7.5-7.5-7.5s-7.5,3.358-7.5,7.5v8.016c0,9.125-7.423,16.548-16.548,16.548
	s-16.549-7.423-16.549-16.548v-8.016c0-9.125,7.424-16.548,16.549-16.548c4.143,0,7.5-3.358,7.5-7.5s-3.357-7.5-7.5-7.5
	c-17.396,0-31.549,14.152-31.549,31.548v8.016c0,17.396,14.152,31.548,31.549,31.548c17.396,0,31.548-14.152,31.548-31.548V264.016z
	"/>
<path d="M367.71,272.033v-8.016c0-4.142-3.357-7.5-7.5-7.5s-7.5,3.358-7.5,7.5v8.016c0,9.125-7.424,16.548-16.549,16.548
	s-16.548-7.423-16.548-16.548v-8.016c0-9.125,7.423-16.548,16.548-16.548c4.143,0,7.5-3.358,7.5-7.5s-3.357-7.5-7.5-7.5
	c-17.396,0-31.548,14.152-31.548,31.548v8.016c0,17.396,14.152,31.548,31.548,31.548C353.558,303.581,367.71,289.428,367.71,272.033
	z"/>
<path d="M477.432,175.323h19.052c2.31,0,4.49-1.064,5.911-2.884c1.422-1.82,1.925-4.194,1.365-6.435
	c-0.465-1.857-11.817-45.651-56.028-84.797c-0.773-8.985-4.874-17.333-11.744-23.57c-8.655-7.856-20.205-11.083-31.702-8.856
	c-1.021,0.198-2.314,0.468-3.831,0.816c-10.703-5.289-22.093-9.874-34.01-13.676l7.086-7.085c1.65-1.65,2.438-3.976,2.131-6.29
	c-0.307-2.314-1.674-4.354-3.698-5.516C370.752,16.334,341.887,0,304.095,0c-20.501,0-35.117,6.073-43.77,11.167
	c-2.709,1.595-5.941,1.595-8.65,0C243.023,6.073,228.407,0,207.906,0c-37.792,0-66.657,16.334-67.867,17.029
	c-2.024,1.163-3.392,3.202-3.698,5.516c-0.308,2.314,0.48,4.64,2.131,6.29l7.086,7.085c-11.917,3.802-23.307,8.387-34.01,13.676
	c-1.518-0.349-2.81-0.618-3.831-0.816c-11.493-2.229-23.048,0.999-31.702,8.856c-6.87,6.237-10.971,14.585-11.744,23.57
	c-44.212,39.146-55.564,82.94-56.028,84.797c-0.56,2.24-0.057,4.614,1.365,6.435c1.421,1.82,3.602,2.884,5.911,2.884h19.052
	C0.415,238.847,0,316.654,0,320.129c0,2.411,1.159,4.675,3.114,6.084c1.956,1.409,4.47,1.794,6.758,1.031l14.531-4.844
	c1.259,22.141,6.983,75.136,32.97,114.115c1.104,1.655,2.819,2.804,4.77,3.194c1.948,0.392,3.977-0.01,5.631-1.114l17.758-11.838
	c8.79,12.738,30.614,41.054,62.4,60.126c2.952,1.772,6.729,1.305,9.162-1.128l11.443-11.444c12.772,9.13,46.545,30.929,86.079,37.56
	c0.034,0.006,0.068,0.012,0.103,0.018c0.016,0.003,0.075,0.01,0.089,0.012c0.388,0.062,0.782,0.1,1.184,0.1
	c0.003,0,0.006-0.001,0.009-0.001c0.003,0,0.006,0.001,0.009,0.001c0.401,0,0.796-0.037,1.184-0.1
	c0.014-0.002,0.157-0.024,0.192-0.03c39.533-6.631,73.307-28.429,86.079-37.56l11.443,11.444c2.433,2.433,6.211,2.899,9.162,1.128
	c31.786-19.072,53.61-47.388,62.4-60.126l17.758,11.838c1.655,1.104,3.684,1.504,5.631,1.114c1.95-0.39,3.666-1.539,4.77-3.194
	c25.986-38.979,31.711-91.974,32.97-114.115l14.531,4.844c2.289,0.763,4.801,0.378,6.758-1.031c1.955-1.41,3.114-3.674,3.114-6.084
	C512,316.654,511.586,238.847,477.432,175.323z M425.34,68.258c-2.484-0.035-5.152,0.158-8.006,0.589
	c-6.595,0.995-15.179,4.384-24.171,9.544c-3.592,2.062-4.833,6.646-2.771,10.238c2.063,3.594,6.648,4.833,10.238,2.772
	c7.309-4.194,14.212-7.009,18.94-7.722c6.824-1.03,10.639-0.004,11.934,1.299c0.936,0.942,1.063,2.695,0.969,4.166
	c-2.58,21.325-12.179,49.426-28.738,70.569c-10.058-20.684-20.766-35.844-30.855-46.931c1.229-1.212,2.472-2.411,3.735-3.574
	c3.048-2.805,3.244-7.55,0.439-10.598c-2.805-3.047-7.549-3.244-10.598-0.439c-1.44,1.325-2.862,2.687-4.261,4.071
	c-1.843-1.62-3.645-3.106-5.397-4.469c-3.887-3.023-8.249-5.323-13.071-6.91c29.452-19.544,55.335-25.791,63.414-27.357
	C413.696,62.234,420.286,63.968,425.34,68.258z M350.125,362.794c-4.143,0-7.5,3.358-7.5,7.5c0,25.522-20.563,46.286-45.838,46.286
	c-10.438,0-20.273-3.461-28.44-10.009c-7.268-5.829-17.424-5.829-24.693,0c-8.167,6.548-18.002,10.01-28.44,10.01
	c-25.275,0-45.838-20.764-45.838-46.286c0-4.142-3.357-7.5-7.5-7.5s-7.5,3.358-7.5,7.5c0,21.047,10.589,39.646,26.679,50.685
	c-20.895-7.495-41.689-18.598-59.673-31.985c-18.514-13.78-32.039-28.939-34.459-38.621c-3.507-14.026-1.968-60.645,10.044-111.695
	c8.24-35.02,27.959-98.354,67.445-129.066c21.09-16.403,64.9,3.171,84.089,14.344v11.801c0,4.142,3.357,7.5,7.5,7.5
	s7.5-3.358,7.5-7.5v-11.805c19.175-11.188,62.953-30.777,84.089-14.34c39.486,30.712,59.205,94.046,67.445,129.066
	c12.012,51.05,13.551,97.669,10.044,111.695c-2.42,9.681-15.945,24.84-34.459,38.62c-17.984,13.386-38.778,24.49-59.673,31.985
	c16.09-11.039,26.679-29.638,26.679-50.685C357.625,366.152,354.268,362.794,350.125,362.794z M311.645,429.724
	c-7.31,16.266-23.576,27.195-42.198,27.195h-26.893c-18.663,0-34.911-10.921-42.209-27.198c4.761,1.209,9.74,1.859,14.868,1.859
	c13.887,0,26.966-4.602,37.823-13.307c1.746-1.398,4.182-1.399,5.928,0c10.857,8.705,23.937,13.307,37.823,13.307
	C301.912,431.58,306.887,430.931,311.645,429.724z M79.528,89.145c-0.094-1.471,0.032-3.224,0.969-4.167
	c1.295-1.303,5.106-2.328,11.934-1.299c8.267,1.247,27.604,10.237,46.697,29.097c-10.091,11.088-20.801,26.249-30.861,46.937
	C91.707,138.57,82.108,110.47,79.528,89.145z M161.74,46.811c2.591-0.69,4.615-2.712,5.311-5.301s-0.044-5.353-1.939-7.249
	l-8.535-8.535C167.123,21.283,185.923,15,207.906,15c17.122,0,29.113,4.945,36.158,9.092c7.362,4.337,16.511,4.337,23.873,0
	C274.982,19.945,286.973,15,304.095,15c21.878,0,40.733,6.296,51.316,10.741l-8.521,8.521c-1.896,1.896-2.635,4.659-1.939,7.249
	s2.72,4.611,5.311,5.301c9.82,2.619,19.311,5.779,28.378,9.438c-15.641,5.844-36.088,15.729-57.092,32.127
	c-9.512,0.574-20.125,2.914-31.808,7.032C274.852,100.657,262.174,107.454,256,111c-6.174-3.546-18.852-10.343-33.739-15.591
	c-11.683-4.119-22.296-6.459-31.809-7.033c-21.003-16.398-41.45-26.283-57.091-32.127C142.429,52.59,151.92,49.43,161.74,46.811z
	 M104.86,63.506c8.079,1.566,33.961,7.813,63.414,27.357c-4.822,1.587-9.184,3.888-13.071,6.911
	c-1.751,1.362-3.553,2.848-5.396,4.468C129.318,81.96,107.28,70.75,94.667,68.847c-2.854-0.431-5.521-0.624-8.005-0.589
	C91.714,63.97,98.302,62.236,104.86,63.506z M482.824,304.998c-2.29-0.763-4.802-0.379-6.758,1.031
	c-1.955,1.41-3.114,3.674-3.114,6.084c0,0.667-0.323,64.21-26.837,109.713L428.5,410.083c-1.706-1.138-3.802-1.527-5.806-1.077
	c-2.001,0.45-3.73,1.7-4.786,3.458c-0.22,0.368-21.518,35.435-56.621,58.458l-11.805-11.806c-2.704-2.702-7.005-2.941-9.989-0.553
	c-0.381,0.305-38.39,30.367-83.492,38.313c-44.975-7.927-83.113-38.01-83.492-38.313c-2.986-2.388-7.287-2.149-9.989,0.553
	l-11.805,11.805c-34.999-22.966-56.402-58.093-56.621-58.458c-1.056-1.759-2.785-3.008-4.786-3.458
	c-2.003-0.451-4.1-0.06-5.806,1.077l-17.615,11.743C39.425,376.393,39.05,312.777,39.049,312.113c0-2.411-1.159-4.675-3.114-6.084
	c-1.957-1.41-4.471-1.793-6.758-1.031L15.4,309.59c1.443-24.93,8.08-89.054,38.542-137.792c1.444-2.312,1.521-5.226,0.199-7.611
	c-1.321-2.385-3.833-3.864-6.56-3.864H25.984c5.021-12.8,16.707-36.88,40.097-60.234c4.623,24.196,16.421,53.575,35.353,74.821
	c-7.01,16.861-13.528,36.784-19.069,60.334c-12.045,51.191-14.54,100.587-9.995,118.768c3.357,13.43,17.957,30.566,40.056,47.015
	c22.64,16.852,49.49,30.32,75.784,38.06c10.289,19.783,30.876,32.832,54.345,32.832h26.893c23.418,0,44.031-13.056,54.337-32.83
	c26.297-7.74,53.15-21.208,75.792-38.062c22.099-16.449,36.698-33.585,40.056-47.015c4.545-18.182,2.05-67.578-9.995-118.769
	c-5.541-23.55-12.059-43.473-19.069-60.334c18.932-21.246,30.73-50.625,35.353-74.821c23.393,23.356,35.079,47.439,40.097,60.234
	h-21.598c-2.727,0-5.238,1.479-6.56,3.864s-1.245,5.299,0.199,7.611c30.462,48.738,37.099,112.863,38.542,137.792L482.824,304.998z"
	/>
<path d="M256,215.403c4.143,0,7.5-3.358,7.5-7.5v-40.081c0-4.142-3.357-7.5-7.5-7.5s-7.5,3.358-7.5,7.5v40.081
	C248.5,212.045,251.858,215.403,256,215.403z"/>
<g>
</g>
<g>
</g>
<g>
</g>
<g>
</g>
<g>
</g>
<g>
</g>
<g>
</g>
<g>
</g>
<g>
</g>
<g>
</g>
<g>
</g>
<g>
</g>
<g>
</g>
<g>
</g>
<g>
</g>
</svg>
