<svg version="1.1" width="681.333" height="681.333" viewBox="0 -10 511.987 511" xmlns="http://www.w3.org/2000/svg" xmlns:xlink="http://www.w3.org/1999/xlink" overflow="hidden"><style>
.MsftOfcThm_Background2_lumMod_50_Fill {
 fill:#767171; 
}
.MsftOfcThm_Background2_lumMod_50_Stroke {
 stroke:#767171; 
}
</style>
<path d=" M 114.594 491.141 C 108.984 491.141 103.414 489.391 98.6602 485.953 C 89.8047 479.535 85.668 468.504 88.0781 457.859 L 121.016 312.77 L 9.3125 214.809 C 1.10156 207.641 -2.03516 196.289 1.33594 185.902 C 4.70703 175.535 13.8789 168.195 24.7383 167.191 L 172.535 153.773 L 230.969 17.0273 C 235.277 6.98047 245.09 0.492188 255.992 0.492188 C 266.895 0.492188 276.707 6.98047 281.016 17.0039 L 339.449 153.773 L 487.223 167.191 C 498.105 168.172 507.277 175.535 510.648 185.902 C 514.02 196.27 510.902 207.641 502.691 214.809 L 390.988 312.75 L 423.926 457.836 C 426.34 468.504 422.199 479.535 413.348 485.934 C 404.516 492.332 392.738 492.824 383.438 487.234 L 255.992 411.074 L 128.547 487.277 C 124.238 489.836 119.438 491.141 114.594 491.141 Z M 255.992 378.266 C 260.836 378.266 265.633 379.566 269.945 382.125 L 390.223 454.062 L 359.137 317.121 C 356.918 307.375 360.227 297.199 367.758 290.605 L 473.23 198.105 L 333.688 185.434 C 323.641 184.516 315 178.199 311.074 168.941 L 255.992 39.8945 L 200.844 168.961 C 196.961 178.156 188.32 184.473 178.297 185.391 L 38.7344 198.062 L 144.203 290.562 C 151.758 297.176 155.062 307.332 152.824 317.102 L 121.762 454.039 L 242.039 382.125 C 246.348 379.566 251.148 378.266 255.992 378.266 Z M 171.406 156.418 C 171.406 156.418 171.406 156.441 171.383 156.461 Z M 340.535 156.355 L 340.559 156.398 C 340.559 156.375 340.559 156.375 340.535 156.355 Z" stroke="#767171" stroke-width="4.77019" stroke-dasharray="" stroke-dashoffset="1" stroke-opacity="1" fill="#767171" fill-opacity="1"/></svg>